<svg xmlns="http://www.w3.org/2000/svg" width="105" height="36.993" viewBox="0 0 105 36.993">
  <g id="Grupo_269" data-name="Grupo 269" transform="translate(1579.874 38.91)">
    <g id="g972" transform="translate(-1538.426 -33.847)">
      <path id="Caminho_530" data-name="Caminho 530" d="M-1477.207,3.938a1.3,1.3,0,0,1-1.31-1.283V-18.48a8.428,8.428,0,0,1,8.507-8.327l6.377.009a8.418,8.418,0,0,1,8.478,8.314v4.5a8.428,8.428,0,0,1-8.507,8.327h-9.009a1.3,1.3,0,0,1-1.311-1.283,1.3,1.3,0,0,1,1.311-1.283h9.009a5.831,5.831,0,0,0,5.886-5.761v-4.5a5.821,5.821,0,0,0-5.862-5.749l-6.375-.009a5.831,5.831,0,0,0-5.884,5.761V2.655A1.3,1.3,0,0,1-1477.207,3.938Z" transform="translate(1478.517 26.807)" fill="#939598"/>
    </g>
    <g id="g976" transform="translate(-1516.189 -33.85)">
      <path id="Caminho_531" data-name="Caminho 531" d="M-1417.658-5.111a1.31,1.31,0,0,1-1.311-1.31V-22.552a1.644,1.644,0,0,0-1.642-1.642h-2.766a1.31,1.31,0,0,1-1.311-1.31,1.31,1.31,0,0,1,1.311-1.31h2.766a4.268,4.268,0,0,1,4.263,4.263V-6.421A1.31,1.31,0,0,1-1417.658-5.111Z" transform="translate(1424.687 26.815)" fill="#939598"/>
    </g>
    <g id="g980" transform="translate(-1511.283 -38.91)">
      <path id="path982" d="M-1411.375-35.038l-1.255-1.255a.8.8,0,0,1,0-1.124l0,0,1.255-1.255a.8.8,0,0,1,1.128,0h0l1.255,1.255a.8.8,0,0,1,0,1.124l0,0-1.255,1.255a.8.8,0,0,1-1.127,0" transform="translate(1412.865 38.91)" fill="#32bcad"/>
    </g>
    <g id="g984" transform="translate(-1505.809 -33.864)">
      <path id="Caminho_532" data-name="Caminho 532" d="M-1382.6-15.631h0a3.416,3.416,0,0,1-2.43-1.007l-6.415-6.415a3.982,3.982,0,0,0-2.834-1.174h-2.744a1.31,1.31,0,0,1-1.311-1.31,1.31,1.31,0,0,1,1.311-1.31h2.744a6.586,6.586,0,0,1,4.687,1.942l6.415,6.415a.812.812,0,0,0,.578.24h0a.81.81,0,0,0,.577-.239l6.393-6.392a6.589,6.589,0,0,1,4.689-1.942h2.23a1.31,1.31,0,0,1,1.31,1.31,1.31,1.31,0,0,1-1.31,1.31h-2.23a3.985,3.985,0,0,0-2.836,1.174l-6.392,6.392A3.417,3.417,0,0,1-1382.6-15.631Z" transform="translate(1398.337 26.849)" fill="#939598"/>
    </g>
    <g id="g988" transform="translate(-1505.809 -23.888)">
      <path id="Caminho_533" data-name="Caminho 533" d="M-1394.283,9.136h-2.744a1.31,1.31,0,0,1-1.311-1.31,1.31,1.31,0,0,1,1.311-1.31h2.743a3.984,3.984,0,0,0,2.835-1.174l6.416-6.414a3.442,3.442,0,0,1,4.862,0l6.392,6.39a3.984,3.984,0,0,0,2.836,1.175h2.23a1.31,1.31,0,0,1,1.31,1.31,1.31,1.31,0,0,1-1.31,1.31h-2.23a6.589,6.589,0,0,1-4.689-1.943l-6.391-6.39a.819.819,0,0,0-1.157,0l-6.415,6.414A6.586,6.586,0,0,1-1394.283,9.136Z" transform="translate(1398.337 2.079)" fill="#939598"/>
    </g>
    <g id="g992" transform="translate(-1572.764 -17.212)">
      <path id="path994" d="M-1542.626,21.59a5.12,5.12,0,0,1-3.644-1.509l-5.263-5.262a1,1,0,0,0-1.383,0L-1558.2,20.1a5.122,5.122,0,0,1-3.645,1.509h-1.036l6.665,6.666a5.331,5.331,0,0,0,7.538,0l6.685-6.684Z" transform="translate(1562.88 -14.541)" fill="#32bcad"/>
    </g>
    <g id="g996" transform="translate(-1572.764 -36.34)">
      <path id="path998" d="M-1561.842-24.54a5.122,5.122,0,0,1,3.645,1.509l5.282,5.283a.978.978,0,0,0,1.383,0l5.263-5.263a5.122,5.122,0,0,1,3.645-1.509h.634l-6.684-6.685a5.33,5.33,0,0,0-7.538,0h0l-6.665,6.665Z" transform="translate(1562.879 32.767)" fill="#32bcad"/>
    </g>
    <g id="g1000" transform="translate(-1579.874 -26.992)">
      <path id="path1002" d="M-1546.348-5.481l-4.04-4.039a.777.777,0,0,1-.287.058h-1.836a3.628,3.628,0,0,0-2.55,1.057l-5.263,5.263a2.517,2.517,0,0,1-1.786.739,2.521,2.521,0,0,1-1.786-.738l-5.282-5.282a3.631,3.631,0,0,0-2.55-1.056h-2.259a.764.764,0,0,1-.271-.055l-4.055,4.055a5.33,5.33,0,0,0,0,7.538l4.055,4.055a.768.768,0,0,1,.272-.055h2.259A3.631,3.631,0,0,0-1569.177,5L-1563.9-.28a2.587,2.587,0,0,1,3.573,0l5.262,5.263a3.628,3.628,0,0,0,2.55,1.056h1.836a.77.77,0,0,1,.287.058l4.039-4.039a5.33,5.33,0,0,0,0-7.538h0" transform="translate(1579.875 9.536)" fill="#32bcad"/>
    </g>
    <g id="g1004" transform="translate(-1532.749 -6.463)">
      <path id="path1006" d="M-1463.961,40.448a4.667,4.667,0,0,0-.988.151v1.316a2.283,2.283,0,0,0,.769.128c.66,0,.973-.223.973-.8,0-.545-.256-.792-.754-.792m-1.209,2.444v-2.6h.181l.019.113a5.166,5.166,0,0,1,1.03-.167,1.023,1.023,0,0,1,.676.2,1,1,0,0,1,.3.807.906.906,0,0,1-.422.837,1.629,1.629,0,0,1-.765.169,2.748,2.748,0,0,1-.792-.12v.766Z" transform="translate(1465.17 -40.233)" fill="#939598"/>
    </g>
    <g id="g1008" transform="translate(-1530.135 -6.463)">
      <path id="path1010" d="M-1457.61,40.44c-.66,0-.955.209-.955.788,0,.562.291.815.955.815s.95-.2.95-.785c0-.562-.291-.818-.95-.818m.848,1.6a1.43,1.43,0,0,1-.848.2,1.45,1.45,0,0,1-.851-.2.911.911,0,0,1-.34-.8.929.929,0,0,1,.34-.8,1.446,1.446,0,0,1,.851-.2,1.447,1.447,0,0,1,.848.2.913.913,0,0,1,.34.8.917.917,0,0,1-.34.8" transform="translate(1458.805 -40.233)" fill="#939598"/>
    </g>
    <g id="g1012" transform="translate(-1527.486 -6.406)">
      <path id="path1014" d="M-1449.87,42.272l-.738-1.582h-.015l-.724,1.582h-.2l-.784-1.9h.244l.652,1.6h.017l.709-1.6h.2l.727,1.6h.015l.637-1.6h.238l-.785,1.9Z" transform="translate(1452.331 -40.368)" fill="#939598"/>
    </g>
    <g id="g1016" transform="translate(-1523.777 -6.461)">
      <path id="path1018" d="M-1442.231,40.439c-.611,0-.818.272-.856.664h1.712c-.019-.434-.241-.664-.856-.664m-.008,1.81a1.147,1.147,0,0,1-.792-.212.986.986,0,0,1-.3-.792.993.993,0,0,1,.354-.815,1.273,1.273,0,0,1,.743-.192,1.334,1.334,0,0,1,.762.185.966.966,0,0,1,.328.879h-1.954c.008.392.136.74.875.74a5.726,5.726,0,0,0,.984-.11v.2a5.82,5.82,0,0,1-1,.117" transform="translate(1443.332 -40.236)" fill="#939598"/>
    </g>
    <g id="g1020" transform="translate(-1520.988 -6.46)">
      <path id="path1022" d="M-1436.569,42.2v-1.9h.181l.019.113a3.362,3.362,0,0,1,.947-.167h.025v.209h-.052a3.1,3.1,0,0,0-.9.151v1.6Z" transform="translate(1436.569 -40.239)" fill="#939598"/>
    </g>
    <g id="g1024" transform="translate(-1519.658 -6.461)">
      <path id="path1026" d="M-1432.208,40.439c-.611,0-.818.272-.856.664h1.712c-.019-.434-.241-.664-.856-.664m-.007,1.81a1.148,1.148,0,0,1-.792-.212.986.986,0,0,1-.3-.792.993.993,0,0,1,.354-.815,1.274,1.274,0,0,1,.743-.192,1.334,1.334,0,0,1,.762.185.966.966,0,0,1,.328.879h-1.953c.007.392.136.74.875.74a5.718,5.718,0,0,0,.984-.11v.2a5.823,5.823,0,0,1-1,.117" transform="translate(1433.308 -40.236)" fill="#939598"/>
    </g>
    <g id="g1028" transform="translate(-1517.062 -7.21)">
      <path id="path1030" d="M-1425,39.53a2.283,2.283,0,0,0-.77-.128c-.66,0-.973.223-.973.8,0,.55.257.792.753.792a4.882,4.882,0,0,0,.99-.147Zm.042,1.625-.019-.114a5.158,5.158,0,0,1-1.029.167,1,1,0,0,1-.676-.2.993.993,0,0,1-.3-.807.9.9,0,0,1,.423-.834,1.594,1.594,0,0,1,.769-.173,2.877,2.877,0,0,1,.788.12v-.871h.223v2.708Z" transform="translate(1426.989 -38.447)" fill="#939598"/>
    </g>
    <g id="g1032" transform="translate(-1512.879 -7.209)">
      <path id="path1034" d="M-1415.6,39.41a4.669,4.669,0,0,0-.988.151v1.312a2.222,2.222,0,0,0,.77.132c.66,0,.973-.223.973-.8,0-.547-.257-.792-.753-.792m.569,1.629a1.63,1.63,0,0,1-.766.169,2.724,2.724,0,0,1-.853-.144l-.011.091h-.151V38.448h.222v.909a5.4,5.4,0,0,1,1.007-.158,1.022,1.022,0,0,1,.675.2.993.993,0,0,1,.3.807.906.906,0,0,1-.422.837" transform="translate(1416.806 -38.448)" fill="#939598"/>
    </g>
    <g id="g1036" transform="translate(-1510.471 -6.406)">
      <path id="path1038" d="M-1410.9,43v-.209c.11.011.211.019.283.019a.577.577,0,0,0,.6-.389l.072-.151-1-1.906h.256l.853,1.644h.015l.811-1.644h.251l-1.069,2.14a.777.777,0,0,1-.8.515A2.309,2.309,0,0,1-1410.9,43" transform="translate(1410.947 -40.368)" fill="#939598"/>
    </g>
    <g id="g1040" transform="translate(-1506.609 -7.099)">
      <path id="path1042" d="M-1400.218,40.224h-.74v.669h.743c.509,0,.7-.057.7-.335,0-.3-.264-.332-.705-.332m-.135-1.083h-.6v.679h.607c.5,0,.7-.06.7-.343,0-.3-.251-.335-.7-.335m1.146,1.984a2.193,2.193,0,0,1-1.2.181h-1.128V38.726h1.1a2.1,2.1,0,0,1,1.1.167.547.547,0,0,1,.264.512.565.565,0,0,1-.407.573v.015c.332.076.547.246.547.611a.557.557,0,0,1-.276.525" transform="translate(1401.534 -38.712)" fill="#939598"/>
    </g>
    <g id="g1044" transform="translate(-1503.526 -6.465)">
      <path id="path1046" d="M-1392.318,41.392c-.222-.019-.448-.03-.686-.03-.389,0-.524.079-.524.256s.113.256.411.256a3.907,3.907,0,0,0,.8-.112Zm.113.8-.015-.113a4.6,4.6,0,0,1-1.033.167.986.986,0,0,1-.576-.141.539.539,0,0,1-.209-.46.537.537,0,0,1,.32-.516,1.745,1.745,0,0,1,.711-.1c.2,0,.467.011.69.026v-.034c0-.3-.2-.4-.732-.4-.209,0-.46.011-.7.033v-.384c.268-.022.57-.038.818-.038a1.614,1.614,0,0,1,.886.177.7.7,0,0,1,.26.653v1.13Z" transform="translate(1394.04 -40.228)" fill="#939598"/>
    </g>
    <g id="g1048" transform="translate(-1500.642 -6.462)">
      <path id="path1050" d="M-1385.213,42.195V41.142c0-.347-.177-.471-.494-.471a3.592,3.592,0,0,0-.777.12v1.4h-.532v-1.9h.434l.019.12a4.41,4.41,0,0,1,1.019-.173.937.937,0,0,1,.652.2.738.738,0,0,1,.209.6v1.166Z" transform="translate(1387.016 -40.235)" fill="#939598"/>
    </g>
    <g id="g1052" transform="translate(-1497.869 -6.462)">
      <path id="path1054" d="M-1379.267,42.248a1.078,1.078,0,0,1-.709-.2.981.981,0,0,1-.3-.807.926.926,0,0,1,.389-.814,1.5,1.5,0,0,1,.837-.189c.219,0,.434.015.669.038v.409c-.192-.019-.422-.034-.607-.034-.505,0-.743.159-.743.6,0,.411.178.588.592.588a4.491,4.491,0,0,0,.8-.1v.392a4.778,4.778,0,0,1-.928.12" transform="translate(1380.282 -40.234)" fill="#939598"/>
    </g>
    <g id="g1056" transform="translate(-1496.018 -6.462)">
      <path id="path1058" d="M-1373.658,40.636c-.506,0-.729.159-.729.593s.219.619.728.619.72-.155.72-.589-.214-.623-.719-.623m.913,1.411a1.6,1.6,0,0,1-.912.2,1.627,1.627,0,0,1-.916-.2.888.888,0,0,1-.357-.8.894.894,0,0,1,.356-.806,1.622,1.622,0,0,1,.916-.2,1.626,1.626,0,0,1,.913.2.89.89,0,0,1,.354.8.9.9,0,0,1-.355.807" transform="translate(1374.935 -40.234)" fill="#939598"/>
    </g>
    <g id="g1060" transform="translate(-1491.74 -7.142)">
      <path id="path1062" d="M-1363.374,41.3a1.435,1.435,0,0,1-.928-.268,1.33,1.33,0,0,1-.4-1.079,1.266,1.266,0,0,1,.524-1.1,1.98,1.98,0,0,1,1.1-.245c.287,0,.581.019.9.045v.464c-.275-.023-.615-.042-.878-.042-.736,0-1.049.279-1.049.875s.291.879.833.879a5.923,5.923,0,0,0,1.15-.155v.46a6.432,6.432,0,0,1-1.245.162" transform="translate(1364.711 -38.609)" fill="#939598"/>
    </g>
    <g id="g1064" transform="translate(-1488.792 -6.463)">
      <path id="path1066" d="M-1356.469,40.575c-.441,0-.611.159-.645.449h1.282c-.015-.309-.2-.449-.637-.449m-.079,1.671a1.232,1.232,0,0,1-.808-.212.982.982,0,0,1-.306-.795.967.967,0,0,1,.359-.8,1.413,1.413,0,0,1,.833-.2,1.469,1.469,0,0,1,.826.192c.306.215.332.547.335.939h-1.81c.011.29.167.479.7.479a6.833,6.833,0,0,0,1.015-.1v.373a7.174,7.174,0,0,1-1.146.126" transform="translate(1357.664 -40.231)" fill="#939598"/>
    </g>
    <g id="g1068" transform="translate(-1485.871 -6.462)">
      <path id="path1070" d="M-1348.881,42.195V41.142c0-.347-.177-.471-.494-.471a3.592,3.592,0,0,0-.777.12v1.4h-.532v-1.9h.434l.019.12a4.4,4.4,0,0,1,1.018-.173.936.936,0,0,1,.652.2.739.739,0,0,1,.209.6v1.166Z" transform="translate(1350.684 -40.235)" fill="#939598"/>
    </g>
    <g id="g1072" transform="translate(-1483.17 -6.981)">
      <path id="path1074" d="M-1343.084,41.525a.692.692,0,0,1-.619-.272.989.989,0,0,1-.14-.577v-.711h-.385v-.4h.385l.057-.577h.472v.577h.75v.4h-.75v.611a.9.9,0,0,0,.053.362.339.339,0,0,0,.347.177,2.42,2.42,0,0,0,.381-.038v.381a3,3,0,0,1-.55.068" transform="translate(1344.227 -38.993)" fill="#939598"/>
    </g>
    <g id="g1076" transform="translate(-1480.988 -6.459)">
      <path id="path1078" d="M-1339.012,42.2v-1.9h.434l.019.12a3.306,3.306,0,0,1,.943-.173.529.529,0,0,1,.068,0V40.7c-.061,0-.132,0-.184,0a2.963,2.963,0,0,0-.747.1V42.2Z" transform="translate(1339.012 -40.242)" fill="#939598"/>
    </g>
    <g id="g1080" transform="translate(-1479.314 -6.465)">
      <path id="path1082" d="M-1333.29,41.392c-.222-.019-.448-.03-.686-.03-.388,0-.524.079-.524.256s.114.256.411.256a3.907,3.907,0,0,0,.8-.112Zm.113.8-.015-.113a4.6,4.6,0,0,1-1.033.167.986.986,0,0,1-.577-.141.538.538,0,0,1-.209-.46.536.536,0,0,1,.32-.516,1.746,1.746,0,0,1,.711-.1c.2,0,.467.011.69.026v-.034c0-.3-.2-.4-.731-.4-.209,0-.46.011-.7.033v-.384c.268-.022.569-.038.818-.038a1.614,1.614,0,0,1,.886.177.7.7,0,0,1,.26.653v1.13Z" transform="translate(1335.012 -40.228)" fill="#939598"/>
    </g>
    <path id="path1084" d="M-1327.989,38.448h.531v2.708h-.532Z" transform="translate(-148.387 -45.658)" fill="#939598"/>
  </g>
</svg>
